<?xml version="1.0" encoding="UTF-8"?><svg id="uuid-d48a6ed5-cdcb-49e0-800a-5599ffde0294" xmlns="http://www.w3.org/2000/svg" viewBox="0 0 278.44 25.56"><g id="uuid-9b148f5b-a099-4dcf-a9a3-465568516925"><path d="M0,24.84V.72h16.16c4.39,0,6.98,2.41,6.98,6.19,0,2.99-1.66,4.64-4.5,5.29v.5c2.99.54,4.93,2.52,4.93,5.54,0,4-2.52,6.59-7.42,6.59H0ZM5.9,10.04h8.53c1.84,0,2.7-.54,2.7-2.16s-.86-2.2-2.7-2.2H5.9v4.36ZM5.9,19.87h8.64c2.05,0,3.02-.61,3.02-2.41s-.97-2.45-3.02-2.45H5.9v4.86Z" fill="#fff" stroke-width="0"/><path d="M23.44,24.84L33.8.72h8.13l10.37,24.12h-6.44l-2.59-6.48h-10.8l-2.59,6.48h-6.44ZM34.42,13.46h6.91l-3.2-7.99h-.5l-3.2,7.99Z" fill="#fff" stroke-width="0"/><path d="M57.49,15.19c.36,3.64,2.59,5.26,7.06,5.26,3.89,0,5.51-.83,5.51-2.38,0-1.19-.58-1.8-2.74-2.2l-7.74-1.4c-4.75-.86-7.52-3.17-7.52-6.91,0-4.68,4.43-7.56,11.3-7.56,7.31,0,11.84,3.67,12.27,9.79h-6.05c-.29-3.2-2.3-4.68-6.23-4.68s-5.29.86-5.33,2.38c.04,1.15.68,1.66,2.63,2.02l7.85,1.4c4.93.86,7.52,3.2,7.52,7.02,0,4.86-4.36,7.63-11.48,7.63-7.85,0-12.6-3.82-13.1-10.37h6.05Z" fill="#fff" stroke-width="0"/><path d="M78.19,24.84V.72h20.34v5.04h-14.43v4.14h14.07v5.04h-14.07v4.86h14.58v5.04h-20.48Z" fill="#fff" stroke-width="0"/><path d="M106.34,15.19c.36,3.64,2.59,5.26,7.06,5.26,3.89,0,5.51-.83,5.51-2.38,0-1.19-.58-1.8-2.74-2.2l-7.74-1.4c-4.75-.86-7.52-3.17-7.52-6.91,0-4.68,4.43-7.56,11.3-7.56,7.31,0,11.84,3.67,12.27,9.79h-6.05c-.29-3.2-2.3-4.68-6.23-4.68s-5.29.86-5.33,2.38c.04,1.15.68,1.66,2.63,2.02l7.85,1.4c4.93.86,7.52,3.2,7.52,7.02,0,4.86-4.36,7.63-11.48,7.63-7.85,0-12.6-3.82-13.1-10.37h6.05Z" fill="#fff" stroke-width="0"/><path d="M125.24,5.76V.72h21.31v5.04h-7.7v19.08h-5.9V5.76h-7.7Z" fill="#fff" stroke-width="0"/><path d="M142.38,24.84L152.75.72h8.13l10.37,24.12h-6.44l-2.59-6.48h-10.8l-2.59,6.48h-6.44ZM153.36,13.46h6.91l-3.2-7.99h-.5l-3.2,7.99Z" fill="#fff" stroke-width="0"/><path d="M167.08,5.76V.72h21.31v5.04h-7.7v19.08h-5.9V5.76h-7.7Z" fill="#fff" stroke-width="0"/><path d="M195.19,15.19c.36,3.64,2.59,5.26,7.06,5.26,3.89,0,5.51-.83,5.51-2.38,0-1.19-.58-1.8-2.74-2.2l-7.74-1.4c-4.75-.86-7.52-3.17-7.52-6.91,0-4.68,4.43-7.56,11.3-7.56,7.31,0,11.84,3.67,12.27,9.79h-6.05c-.29-3.2-2.3-4.68-6.23-4.68s-5.29.86-5.33,2.38c.04,1.15.68,1.66,2.63,2.02l7.85,1.4c4.93.86,7.52,3.2,7.52,7.02,0,4.86-4.36,7.63-11.48,7.63-7.85,0-12.6-3.82-13.1-10.37h6.05Z" fill="#fff" stroke-width="0"/><path d="M218.91,18.83c2.45,0,4.1,1.44,4.1,3.24s-1.66,3.24-4.1,3.24-4.1-1.44-4.1-3.24,1.66-3.24,4.1-3.24Z" fill="#fff" stroke-width="0"/><path d="M236.09,0c6.84,0,11.81,3.56,12.96,9h-6.15c-.9-2.41-3.31-3.82-6.8-3.82-4.61,0-7.56,2.99-7.56,7.59s2.95,7.6,7.56,7.6c3.49,0,6.05-1.3,7.02-3.89h-6.41v-5.04h12.81c.65,8.75-4.75,14.11-13.43,14.11-7.92,0-13.61-5.29-13.61-12.78s5.69-12.78,13.61-12.78Z" fill="#fff" stroke-width="0"/><path d="M264.96,0c6.84,0,11.81,3.56,12.96,9h-6.16c-.9-2.41-3.31-3.82-6.8-3.82-4.61,0-7.56,2.99-7.56,7.59s2.95,7.6,7.56,7.6c3.49,0,6.05-1.3,7.02-3.89h-6.41v-5.04h12.81c.65,8.75-4.75,14.11-13.43,14.11-7.92,0-13.61-5.29-13.61-12.78s5.69-12.78,13.61-12.78Z" fill="#fff" stroke-width="0"/></g></svg>