<svg width="12" height="12" viewBox="0 0 12 12" fill="none" xmlns="http://www.w3.org/2000/svg">
<path d="M9.77344 5.64787C9.72118 5.70031 9.65908 5.74191 9.59071 5.7703C9.52234 5.7987 9.44903 5.81331 9.375 5.81331C9.30097 5.81331 9.22766 5.7987 9.15929 5.7703C9.09092 5.74191 9.02882 5.70031 8.97656 5.64787L6.56297 3.23427V10.1249C6.56297 10.2741 6.5037 10.4172 6.39822 10.5226C6.29273 10.6281 6.14965 10.6874 6.00047 10.6874C5.85128 10.6874 5.70821 10.6281 5.60272 10.5226C5.49723 10.4172 5.43797 10.2741 5.43797 10.1249V3.23427L3.02344 5.64787C2.91776 5.75354 2.77444 5.8129 2.625 5.8129C2.47556 5.8129 2.33223 5.75354 2.22656 5.64787C2.12089 5.54219 2.06152 5.39887 2.06152 5.24943C2.06152 5.09999 2.12089 4.95666 2.22656 4.85099L5.60156 1.47599C5.65382 1.42355 5.71592 1.38194 5.78429 1.35355C5.85266 1.32516 5.92597 1.31055 6 1.31055C6.07403 1.31055 6.14734 1.32516 6.21571 1.35355C6.28408 1.38194 6.34618 1.42355 6.39844 1.47599L9.77344 4.85099C9.82588 4.90325 9.86748 4.96535 9.89588 5.03372C9.92427 5.10209 9.93888 5.1754 9.93888 5.24943C9.93888 5.32346 9.92427 5.39677 9.89588 5.46514C9.86748 5.53351 9.82588 5.59561 9.77344 5.64787Z" fill="#B0AAE8"/>
</svg>
