<svg width="12" height="12" viewBox="0 0 12 12" fill="none" xmlns="http://www.w3.org/2000/svg">
<path d="M10.8984 3.77299L4.89844 9.77299C4.84618 9.82543 4.78408 9.86704 4.71571 9.89543C4.64734 9.92382 4.57403 9.93843 4.5 9.93843C4.42597 9.93843 4.35266 9.92382 4.28429 9.89543C4.21592 9.86704 4.15382 9.82543 4.10156 9.77299L1.47656 7.14799C1.42424 7.09566 1.38273 7.03355 1.35442 6.96518C1.3261 6.89682 1.31152 6.82355 1.31152 6.74955C1.31152 6.67555 1.3261 6.60228 1.35442 6.53392C1.38273 6.46555 1.42424 6.40344 1.47656 6.35111C1.52889 6.29879 1.591 6.25728 1.65937 6.22897C1.72773 6.20065 1.801 6.18607 1.875 6.18607C1.949 6.18607 2.02227 6.20065 2.09063 6.22897C2.159 6.25728 2.22111 6.29879 2.27344 6.35111L4.50047 8.57814L10.1025 2.97705C10.2082 2.87138 10.3515 2.81201 10.5009 2.81201C10.6504 2.81201 10.7937 2.87138 10.8994 2.97705C11.005 3.08272 11.0644 3.22604 11.0644 3.37549C11.0644 3.52493 11.005 3.66825 10.8994 3.77393L10.8984 3.77299Z" fill="white"/>
</svg>
