<?xml version="1.0" encoding="UTF-8"?><svg id="uuid-487770a1-6d59-457a-a620-f754539013e0" xmlns="http://www.w3.org/2000/svg" viewBox="0 0 32 32"><path d="M23.78,13.89c-.09,0-.18-.02-.26-.07l-7.52-4.62-7.52,4.62c-.24.15-.54.07-.69-.16-.14-.24-.07-.54.16-.69l7.78-4.78c.16-.1.36-.1.52,0l7.78,4.78c.24.14.31.45.16.69-.09.15-.26.24-.43.24Z" fill="#fff" stroke-width="0"/><path d="M23.78,18.89c-.09,0-.18-.02-.26-.07l-7.52-4.62-7.52,4.62c-.24.15-.54.07-.69-.16s-.07-.54.16-.69l7.78-4.78c.16-.1.36-.1.52,0l7.78,4.78c.24.14.31.45.16.69-.09.15-.26.24-.43.24Z" fill="#fff" stroke-width="0"/><path d="M23.78,23.89c-.09,0-.18-.02-.26-.07l-7.52-4.62-7.52,4.62c-.24.15-.54.07-.69-.16-.14-.24-.07-.54.16-.69l7.78-4.78c.16-.1.36-.1.52,0l7.78,4.78c.24.14.31.45.16.69-.09.15-.26.24-.43.24Z" fill="#fff" stroke-width="0"/></svg>