<?xml version="1.0" encoding="UTF-8"?><svg id="uuid-1c899689-b7c9-498c-b6ef-516833b0e83c" xmlns="http://www.w3.org/2000/svg" viewBox="0 0 32 32"><path d="M14,8c0-3.31-2.69-6-6-6s-6,2.69-6,6,2.69,6,6,6,6-2.69,6-6ZM8,3c2.59,0,4.7,1.98,4.95,4.5h-2.5c-.23-1.14-1.24-2-2.45-2s-2.22.86-2.45,2h-2.5c.25-2.52,2.36-4.5,4.95-4.5ZM9.5,8c0,.83-.67,1.5-1.5,1.5s-1.5-.67-1.5-1.5.67-1.5,1.5-1.5,1.5.67,1.5,1.5ZM3.05,8.5h2.5c.23,1.14,1.24,2,2.45,2s2.22-.86,2.45-2h2.5c-.25,2.52-2.36,4.5-4.95,4.5s-4.7-1.98-4.95-4.5Z" fill="#fff" stroke-width="0"/><path d="M24,18c-3.31,0-6,2.69-6,6s2.69,6,6,6,6-2.69,6-6-2.69-6-6-6ZM24,19c2.59,0,4.7,1.98,4.95,4.5h-2.5c-.23-1.14-1.24-2-2.45-2s-2.22.86-2.45,2h-2.5c.25-2.52,2.36-4.5,4.95-4.5ZM25.5,24c0,.83-.67,1.5-1.5,1.5s-1.5-.67-1.5-1.5.67-1.5,1.5-1.5,1.5.67,1.5,1.5ZM24,29c-2.59,0-4.7-1.98-4.95-4.5h2.5c.23,1.14,1.24,2,2.45,2s2.22-.86,2.45-2h2.5c-.25,2.52-2.36,4.5-4.95,4.5Z" fill="#fff" stroke-width="0"/><path d="M16,8.5h6c.83,0,1.5.67,1.5,1.5v4.79l-1.27-1.27c-.2-.2-.51-.2-.71,0s-.2.51,0,.71l2.12,2.12s.1.08.16.11c.06.03.13.04.19.04s.13-.01.19-.04c.06-.03.12-.06.16-.11l2.12-2.12c.2-.2.2-.51,0-.71s-.51-.2-.71,0l-1.27,1.27v-4.79c0-1.38-1.12-2.5-2.5-2.5h-6c-.28,0-.5.22-.5.5s.22.5.5.5Z" fill="#fff" stroke-width="0"/><path d="M16,23.5h-6c-.83,0-1.5-.67-1.5-1.5v-4.79l1.27,1.27c.1.1.23.15.35.15s.26-.05.35-.15c.2-.2.2-.51,0-.71l-2.12-2.12s-.1-.08-.16-.11c-.12-.05-.26-.05-.38,0-.06.03-.12.06-.16.11l-2.12,2.12c-.2.2-.2.51,0,.71s.51.2.71,0l1.27-1.27v4.79c0,1.38,1.12,2.5,2.5,2.5h6c.28,0,.5-.22.5-.5s-.22-.5-.5-.5Z" fill="#fff" stroke-width="0"/></svg>