<?xml version="1.0" encoding="UTF-8"?><svg id="uuid-60f9ddc3-e566-416c-96a6-5e9712f6cee3" xmlns="http://www.w3.org/2000/svg" xmlns:xlink="http://www.w3.org/1999/xlink" viewBox="0 0 340 260"><defs><linearGradient id="uuid-d1a85f86-7fcc-488d-818f-2e004b789e17" x1="289.03" y1="216.97" x2="289.03" y2="156.33" gradientUnits="userSpaceOnUse"><stop offset="0" stop-color="#141744"/><stop offset="1" stop-color="#284d79"/></linearGradient><linearGradient id="uuid-cc784217-5b63-405c-9f5b-7394059b9376" x1="257.56" y1="158.15" x2="316.08" y2="216.67" gradientUnits="userSpaceOnUse"><stop offset=".07" stop-color="#e3a455"/><stop offset=".24" stop-color="#f6dba6"/><stop offset=".43" stop-color="#ffebc3"/><stop offset=".53" stop-color="#f0be79"/><stop offset=".59" stop-color="#8f653b"/><stop offset=".63" stop-color="#673d22"/><stop offset=".71" stop-color="#ba7f3b"/><stop offset=".77" stop-color="#eebc70"/><stop offset=".92" stop-color="#83563c"/></linearGradient><linearGradient id="uuid-051f9368-cf6e-48a8-8465-f4aa7f3b8d10" x1="274.66" y1="216.97" x2="274.66" y2="156.33" gradientTransform="translate(325.63) rotate(-180) scale(1 -1)" xlink:href="#uuid-d1a85f86-7fcc-488d-818f-2e004b789e17"/><linearGradient id="uuid-ae8f117c-1a15-49fd-85ad-e291774e250a" x1="243.19" y1="158.15" x2="301.71" y2="216.67" gradientTransform="translate(325.63) rotate(-180) scale(1 -1)" xlink:href="#uuid-cc784217-5b63-405c-9f5b-7394059b9376"/><linearGradient id="uuid-9e7bfa48-1c9c-4fe1-a968-899661c6952c" x1="263.66" y1="185.6" x2="263.66" y2="155.47" xlink:href="#uuid-d1a85f86-7fcc-488d-818f-2e004b789e17"/><linearGradient id="uuid-29539db3-d4d4-43b1-9d76-ec8134f05eee" x1="-935.58" y1="191.24" x2="-935.58" y2="155.47" gradientTransform="translate(-860) rotate(-180) scale(1 -1)" xlink:href="#uuid-d1a85f86-7fcc-488d-818f-2e004b789e17"/><linearGradient id="uuid-99f3fa26-f8e0-4e23-b662-af669531cd35" x1="170" y1="230" x2="170" y2="30" gradientUnits="userSpaceOnUse"><stop offset="0" stop-color="#141414"/><stop offset="1" stop-color="#282828"/></linearGradient><linearGradient id="uuid-3b8a2807-a7f2-4a77-aee2-58048aaf1651" x1="170" y1="25" x2="170" y2="235" gradientUnits="userSpaceOnUse"><stop offset=".07" stop-color="#e3a455"/><stop offset=".24" stop-color="#f6dba6"/><stop offset=".43" stop-color="#ffebc3"/><stop offset=".53" stop-color="#f0be79"/><stop offset=".59" stop-color="#8f653b"/><stop offset=".63" stop-color="#673d22"/><stop offset=".71" stop-color="#ba7f3b"/><stop offset=".77" stop-color="#eebc70"/><stop offset=".92" stop-color="#3f1f0f"/></linearGradient><filter id="uuid-b8b8b7af-93dc-4118-9523-43bccc5f769d" filterUnits="userSpaceOnUse"><feOffset dx="0" dy="4"/><feGaussianBlur result="uuid-b188366d-e85a-4134-9fc4-866245fb483b" stdDeviation="2"/><feFlood flood-color="#000" flood-opacity=".75"/><feComposite in2="uuid-b188366d-e85a-4134-9fc4-866245fb483b" operator="in"/><feComposite in="SourceGraphic"/></filter><linearGradient id="uuid-aba998b2-2526-4fe5-ae5c-bddfa3e55238" x1="170" y1="24.5" x2="170" y2="130" gradientUnits="userSpaceOnUse"><stop offset="0" stop-color="#ffffcf"/><stop offset="1" stop-color="#ffd6a8"/></linearGradient><linearGradient id="uuid-41e1e635-3967-4fa1-88bf-102e61807aab" x1="170" y1="87.78" x2="170" y2="125.5" xlink:href="#uuid-aba998b2-2526-4fe5-ae5c-bddfa3e55238"/><linearGradient id="uuid-57fb1c7e-d4bc-4637-adf3-34a5ebc9e6b4" x1="170" y1="130" x2="170" y2="162.22" xlink:href="#uuid-aba998b2-2526-4fe5-ae5c-bddfa3e55238"/><linearGradient id="uuid-52c04ece-a8f9-4e83-91a5-37b6aff30b8b" x1="170" y1="135" x2="170" y2="225.5" xlink:href="#uuid-aba998b2-2526-4fe5-ae5c-bddfa3e55238"/><linearGradient id="uuid-95df73e4-c147-4972-a468-91f5bf1d7d46" x1="170" y1="113.82" x2="170" y2="130" xlink:href="#uuid-aba998b2-2526-4fe5-ae5c-bddfa3e55238"/><linearGradient id="uuid-17a1aca3-866e-46e5-9288-ca51584679d5" x1="168.43" y1="243.28" x2="168.43" y2="176.37" xlink:href="#uuid-d1a85f86-7fcc-488d-818f-2e004b789e17"/><linearGradient id="uuid-3204478f-435a-4f68-90ea-12c09bdbf57e" x1="168.43" y1="238.78" x2="168.43" y2="180.87" xlink:href="#uuid-cc784217-5b63-405c-9f5b-7394059b9376"/><linearGradient id="uuid-df107012-0929-44db-bbb1-6ce650ec1ec2" x1="106.79" y1="204.12" x2="106.79" y2="228.05" gradientUnits="userSpaceOnUse"><stop offset="0" stop-color="#f0f0f0"/><stop offset="1" stop-color="#c8c8c8"/></linearGradient><linearGradient id="uuid-dddc8112-e4b8-46e9-afba-c54068b417db" x1="126.63" y1="203.16" x2="126.63" y2="227.08" xlink:href="#uuid-df107012-0929-44db-bbb1-6ce650ec1ec2"/><linearGradient id="uuid-a38252aa-1f49-4f39-812d-7479331d14df" x1="146.07" y1="200.98" x2="146.07" y2="225.01" xlink:href="#uuid-df107012-0929-44db-bbb1-6ce650ec1ec2"/><linearGradient id="uuid-877092e1-290a-4a9c-9600-ddab5234c2c5" x1="165.61" y1="197.72" x2="165.61" y2="221.95" xlink:href="#uuid-df107012-0929-44db-bbb1-6ce650ec1ec2"/><linearGradient id="uuid-ec7e4d91-074f-4ec8-a370-4cb1d1893cd9" x1="188.1" y1="195.01" x2="188.1" y2="219.02" xlink:href="#uuid-df107012-0929-44db-bbb1-6ce650ec1ec2"/><linearGradient id="uuid-e7337987-5703-4150-9c24-ad16c7e17c7d" x1="210.45" y1="192.6" x2="210.45" y2="216.72" xlink:href="#uuid-df107012-0929-44db-bbb1-6ce650ec1ec2"/><linearGradient id="uuid-6ccb2efd-b7d1-4d81-900e-8edbd69c436c" x1="231.16" y1="191.6" x2="231.16" y2="215.5" xlink:href="#uuid-df107012-0929-44db-bbb1-6ce650ec1ec2"/></defs><path d="M329.48,213.83c-26.96,10.87-53.93-10.87-80.89,0v-54.36c26.96-10.87,53.93,10.87,80.89,0-6.67,11.75-13.33,21.5-20,30.25,6.67,9.37,13.33,17.74,20,24.11Z" fill="url(#uuid-d1a85f86-7fcc-488d-818f-2e004b789e17)" stroke-width="0"/><path d="M312.38,212.47c-7.34,0-14.68-1.48-22.46-3.05-7.88-1.59-16.01-3.23-24.24-3.23-4.27,0-8.19.43-11.98,1.32l-.61.14v-45.01l.36-.11c3.79-1.14,7.8-1.7,12.24-1.7,7.34,0,14.68,1.48,22.46,3.05,7.88,1.59,16.01,3.23,24.24,3.23,2.26,0,4.47-.13,6.57-.37l1.04-.12-.56.89c-4.19,6.67-8.62,13.04-13.54,19.49l-2.01,2.64,1.92,2.7c5.32,7.48,10.13,13.59,14.68,18.66l.6.67-.89.16c-2.46.43-5.09.65-7.82.65ZM265.68,205.19c8.33,0,16.51,1.65,24.43,3.24,7.74,1.56,15.04,3.03,22.27,3.03,2.35,0,4.62-.17,6.76-.49-4.4-4.96-9.04-10.89-14.15-18.07l-2.35-3.3,2.46-3.22c4.68-6.14,8.92-12.22,12.94-18.54-1.82.18-3.72.27-5.66.27-8.33,0-16.51-1.65-24.43-3.24-7.74-1.56-15.04-3.03-22.28-3.03-4.2,0-8,.51-11.6,1.55v43.01c3.67-.81,7.47-1.2,11.59-1.2Z" fill="url(#uuid-cc784217-5b63-405c-9f5b-7394059b9376)" stroke-width="0"/><path d="M10.52,213.83c26.96,10.87,53.93-10.87,80.89,0,0-18.12,0-36.24,0-54.36-26.96-10.87-53.93,10.87-80.89,0,6.67,11.75,13.33,21.5,20,30.25-6.67,9.37-13.33,17.74-20,24.11Z" fill="url(#uuid-051f9368-cf6e-48a8-8465-f4aa7f3b8d10)" stroke-width="0"/><path d="M27.62,212.47c-2.73,0-5.37-.22-7.82-.65l-.89-.16.6-.67c4.56-5.07,9.36-11.18,14.68-18.66l1.92-2.7-2.01-2.64c-4.92-6.45-9.35-12.83-13.54-19.49l-.56-.89,1.04.12c2.1.25,4.31.37,6.57.37,8.23,0,16.36-1.64,24.23-3.22,7.79-1.57,15.14-3.05,22.47-3.05,4.44,0,8.45.55,12.24,1.7l.36.11v45.01l-.61-.14c-3.79-.89-7.71-1.32-11.98-1.32-8.23,0-16.37,1.64-24.23,3.22-7.79,1.57-15.13,3.05-22.47,3.05ZM20.86,210.98c2.14.33,4.41.49,6.76.49,7.24,0,14.54-1.47,22.27-3.03,7.92-1.6,16.11-3.25,24.44-3.25,4.12,0,7.92.39,11.59,1.2v-43.01c-3.59-1.04-7.39-1.55-11.6-1.55-7.24,0-14.54,1.47-22.27,3.03-7.92,1.6-16.11,3.25-24.44,3.25-1.93,0-3.83-.09-5.66-.27,4.01,6.32,8.25,12.4,12.94,18.54l2.46,3.22-2.35,3.3c-5.11,7.18-9.75,13.11-14.15,18.07Z" fill="url(#uuid-ae8f117c-1a15-49fd-85ad-e291774e250a)" stroke-width="0"/><path d="M278.58,182.65c2.6-6.65-30-27.18-30-27.18v27.18s27.4,6.65,30,0Z" fill="url(#uuid-9e7bfa48-1c9c-4fe1-a968-899661c6952c)" stroke-width="0"/><path d="M58.29,182.65c14.84-3.96,30-27.18,30-27.18,0,0,7.74,29.3,3.13,33.9s-27.13.06-33.13-6.72Z" fill="url(#uuid-29539db3-d4d4-43b1-9d76-ec8134f05eee)" stroke-width="0"/><circle cx="170" cy="130" r="100" fill="url(#uuid-99f3fa26-f8e0-4e23-b662-af669531cd35)" stroke-width="0"/><path d="M170,25c-57.9,0-105,47.1-105,105s47.1,105,105,105,105-47.1,105-105S227.9,25,170,25ZM170,35c50.71,0,92.26,39.93,94.87,90h-53.46c-2.48-20.66-20.1-36.72-41.41-36.72s-38.93,16.07-41.41,36.72h-53.46c2.61-50.07,44.16-90,94.87-90ZM201.72,130c0,17.49-14.23,31.72-31.72,31.72s-31.72-14.23-31.72-31.72,14.23-31.72,31.72-31.72,31.72,14.23,31.72,31.72ZM170,225c-50.71,0-92.26-39.93-94.87-90h53.46c2.48,20.66,20.1,36.72,41.41,36.72s38.93-16.07,41.41-36.72h53.46c-2.61,50.07-44.16,90-94.87,90ZM185.68,130c0,8.66-7.02,15.68-15.68,15.68s-15.68-7.02-15.68-15.68,7.02-15.68,15.68-15.68,15.68,7.02,15.68,15.68Z" fill="url(#uuid-3b8a2807-a7f2-4a77-aee2-58048aaf1651)" filter="url(#uuid-b8b8b7af-93dc-4118-9523-43bccc5f769d)" stroke-width="0"/><path d="M275,130c-.07-27.53-11.54-54.68-31.02-73.98-9.71-9.67-21.31-17.42-33.97-22.64-12.65-5.24-26.33-7.91-40.01-7.89-13.68-.02-27.36,2.65-40.01,7.89-12.65,5.22-24.26,12.97-33.97,22.64-19.49,19.3-30.95,46.45-31.02,73.98-.08-13.74,2.56-27.52,7.78-40.26,5.25-12.74,13.05-24.41,22.78-34.18,9.73-9.77,21.38-17.62,34.12-22.94,12.73-5.33,26.52-8.09,40.33-8.12,13.81.03,27.6,2.79,40.33,8.12,12.73,5.31,24.39,13.17,34.12,22.93,9.73,9.77,17.53,21.44,22.78,34.18,5.22,12.75,7.86,26.52,7.78,40.26Z" fill="url(#uuid-aba998b2-2526-4fe5-ae5c-bddfa3e55238)" stroke-width="0"/><path d="M264.87,125l-26.73.23-26.73.14h-.32s-.04-.32-.04-.32c-1.23-9.93-6.19-19.32-13.69-25.91-7.46-6.64-17.38-10.4-27.36-10.36-9.98-.04-19.9,3.72-27.36,10.36-7.51,6.59-12.46,15.98-13.69,25.91l-.04.33h-.32s-26.73-.14-26.73-.14l-26.73-.23,26.73-.23,26.73-.14-.36.32c1.13-10.13,6.17-19.75,13.82-26.5,7.6-6.81,17.74-10.69,27.96-10.68,5.1.02,10.2.95,14.96,2.78,4.76,1.82,9.19,4.52,12.99,7.9,7.65,6.75,12.69,16.37,13.82,26.5l-.36-.32,26.73.14,26.73.23Z" fill="url(#uuid-41e1e635-3967-4fa1-88bf-102e61807aab)" stroke-width="0"/><path d="M201.72,130c.11,4.15-.67,8.34-2.2,12.23-1.56,3.88-3.9,7.46-6.83,10.46-5.87,6.03-14.25,9.52-22.69,9.53-8.44,0-16.82-3.5-22.69-9.53-2.94-3.01-5.28-6.58-6.83-10.46-1.53-3.89-2.3-8.07-2.2-12.23.18,8.31,3.69,16.42,9.57,22.15,2.94,2.85,6.4,5.18,10.19,6.73,3.78,1.56,7.87,2.35,11.96,2.34,4.09,0,8.18-.78,11.96-2.34,3.79-1.55,7.25-3.88,10.19-6.73,5.88-5.73,9.39-13.84,9.57-22.15Z" fill="url(#uuid-57fb1c7e-d4bc-4637-adf3-34a5ebc9e6b4)" stroke-width="0"/><path d="M264.87,135c-.55,12.01-3.4,23.92-8.39,34.88-5.03,10.95-12.16,20.93-20.9,29.24-8.73,8.32-19.04,14.99-30.24,19.49-11.19,4.52-23.26,6.85-35.34,6.88-12.08-.03-24.15-2.36-35.34-6.88-11.2-4.5-21.51-11.17-30.24-19.49-8.74-8.31-15.87-18.3-20.9-29.24-5-10.97-7.85-22.88-8.39-34.88,1.36,24.03,12.29,47.23,29.75,63.64,8.71,8.22,18.97,14.79,30.09,19.2,11.12,4.43,23.08,6.68,35.03,6.66,11.96.02,23.92-2.23,35.03-6.66,11.12-4.41,21.38-10.98,30.09-19.2,17.46-16.42,28.39-39.62,29.75-63.65Z" fill="url(#uuid-52c04ece-a8f9-4e83-91a5-37b6aff30b8b)" stroke-width="0"/><path d="M154.32,130c-.11-2.06.25-4.14.97-6.09.75-1.95,1.9-3.74,3.35-5.27,2.91-3.05,7.13-4.8,11.36-4.82,4.23.02,8.45,1.77,11.36,4.82,1.45,1.52,2.6,3.32,3.35,5.27.72,1.95,1.08,4.04.97,6.09-.2-4.11-1.96-8.04-4.87-10.82-2.88-2.79-6.83-4.41-10.82-4.37-3.99-.05-7.94,1.58-10.82,4.36-2.9,2.77-4.67,6.71-4.86,10.82Z" fill="url(#uuid-95df73e4-c147-4972-a468-91f5bf1d7d46)" stroke-width="0"/><path d="M278.58,237.01c-73.43-21.74-146.86,21.74-220.3,0,0-18.12,0-36.24,0-54.36,73.43,21.74,146.86-21.74,220.3,0v54.36Z" fill="url(#uuid-17a1aca3-866e-46e5-9288-ca51584679d5)" stroke-width="0"/><path d="M104.84,238.78h0c-15.22,0-28.85-1.66-41.68-5.08l-.37-.1v-45.06l.62.15c12.84,3.18,26.4,4.72,41.43,4.72,21.53,0,43.24-3.21,64.24-6.32,20.69-3.06,42.07-6.23,62.94-6.23,15.23,0,28.86,1.66,41.68,5.08l.37.1v45.06l-.62-.15c-12.84-3.18-26.39-4.72-41.43-4.72-21.53,0-43.25,3.21-64.26,6.32-20.68,3.06-42.06,6.23-62.93,6.23ZM63.79,232.84c12.63,3.33,26.06,4.95,41.05,4.95h0c20.79,0,42.14-3.16,62.78-6.22,21.04-3.12,42.8-6.34,64.4-6.34,14.88,0,28.32,1.51,41.05,4.6v-43.01c-12.63-3.33-26.06-4.95-41.05-4.95-20.8,0-42.14,3.16-62.79,6.22-21.05,3.12-42.8,6.34-64.4,6.34-14.88,0-28.32-1.51-41.05-4.6v43.01Z" fill="url(#uuid-3204478f-435a-4f68-90ea-12c09bdbf57e)" stroke-width="0"/><path d="M102.56,204.2h1.26s3.17,22.81,3.17,22.81h.03l2.75-22.88h1.26s-2.97,23.9-2.97,23.9l-2.11.02-3.4-23.85Z" fill="url(#uuid-df107012-0929-44db-bbb1-6ce650ec1ec2)" stroke-width="0"/><path d="M125,203.26l1.24-.1,2,23.82-1.24.1-2.01-23.82Z" fill="url(#uuid-dddc8112-e4b8-46e9-afba-c54068b417db)" stroke-width="0"/><path d="M143.64,221.81l-2.17-16.72c-.32-2.44.86-3.78,3.04-4.06,2.19-.29,3.67.71,3.99,3.15l.64,4.92-1.23.16-.64-4.92c-.21-1.64-1.05-2.37-2.61-2.17-1.54.2-2.17,1.12-1.95,2.76l2.17,16.72c.21,1.64,1.05,2.36,2.59,2.16,1.56-.2,2.18-1.11,1.97-2.75l-.66-5.05,1.23-.16.65,5.05c.32,2.44-.86,3.78-3.06,4.06-2.17.28-3.66-.71-3.97-3.15Z" fill="url(#uuid-a38252aa-1f49-4f39-812d-7479331d14df)" stroke-width="0"/><path d="M164.81,199.48l-2.78.41-.17-1.17,6.78-1,.17,1.17-2.77.41,3.33,22.47-1.23.18-3.33-22.47Z" fill="url(#uuid-877092e1-290a-4a9c-9600-ddab5234c2c5)" stroke-width="0"/><path d="M185.71,215.82l-2.23-16.67c-.33-2.45.85-3.79,3.02-4.08,2.17-.29,3.66.7,3.99,3.15l2.23,16.67c.33,2.45-.85,3.79-3.02,4.08s-3.66-.7-3.99-3.15ZM189.54,217.83c1.54-.21,2.16-1.13,1.94-2.78l-2.23-16.67c-.22-1.65-1.06-2.38-2.6-2.18-1.54.21-2.16,1.13-1.94,2.78l2.23,16.67c.22,1.65,1.06,2.38,2.6,2.18Z" fill="url(#uuid-ec7e4d91-074f-4ec8-a370-4cb1d1893cd9)" stroke-width="0"/><path d="M205.9,192.91l3.43-.29c2.09-.18,3.26.71,3.45,2.95l.54,6.46c.13,1.57-.35,2.53-1.58,2.94v.03c1.3.22,1.92,1.1,2.05,2.69l.32,3.77c.13,1.5.3,2.95.87,4.67l-1.29.11c-.54-1.71-.69-3.18-.82-4.68l-.32-3.78c-.13-1.57-.68-2.19-2.21-2.06l-2.1.18.9,10.73-1.24.1-2.01-23.82ZM210.22,204.55c1.55-.13,2-.86,1.87-2.42l-.54-6.46c-.12-1.4-.66-2.01-2.13-1.89l-2.17.18.91,10.77,2.07-.17Z" fill="url(#uuid-e7337987-5703-4150-9c24-ad16c7e17c7d)" stroke-width="0"/><path d="M230.59,206.47l-3.28-14.84h1.34s2.53,12.24,2.53,12.24h.05l2.44-12.26h1.34s-3.17,14.86-3.17,14.86l.03,9.03h-1.26s-.03-9.02-.03-9.02Z" fill="url(#uuid-6ccb2efd-b7d1-4d81-900e-8edbd69c436c)" stroke-width="0"/></svg>