<?xml version="1.0" encoding="UTF-8"?><svg id="uuid-0b35abe7-e6b4-478c-9c0c-c978e295ede1" xmlns="http://www.w3.org/2000/svg" viewBox="0 0 219.81 220.5"><g id="uuid-c656aad9-7d53-4282-ae40-fdfbfea4411a"><path d="M153.29,122.5h65.97c-5.98,55.11-52.65,98-109.35,98S6.54,177.61.56,122.5h65.97c5.25,19.03,22.69,33,43.38,33s38.13-13.97,43.38-33Z" fill="#fff" stroke-width="0"/><path d="M219.81,99h-66.91l-.1-.37c-5.3-19.21-22.94-32.63-42.9-32.63s-37.6,13.42-42.9,32.63l-.1.37H0l.06-.55C6.15,42.32,53.37,0,109.91,0s103.76,42.32,109.85,98.45l.06.55ZM153.67,98h65.03C212.42,42.66,165.74,1,109.91,1S7.4,42.66,1.12,98h65.03c5.54-19.45,23.48-33,43.76-33s38.22,13.55,43.76,33Z" fill="#fff" stroke-width="0"/><path d="M137.91,110.5c0,4.29-.97,8.36-2.7,12-4.49,9.46-14.13,16-25.3,16s-20.81-6.54-25.3-16c-1.73-3.64-2.7-7.71-2.7-12s.97-8.36,2.7-12c4.49-9.46,14.13-16,25.3-16s20.81,6.54,25.3,16c1.73,3.64,2.7,7.71,2.7,12Z" fill="#fff" stroke-width="0"/></g></svg>