<?xml version="1.0" encoding="UTF-8"?>
<svg xmlns="http://www.w3.org/2000/svg" version="1.1" viewBox="0 0 250 250">
  <defs>
    <style>
      .cls-1 {
        fill: none;
        stroke: #fff;
        stroke-miterlimit: 10;
      }

      .cls-2 {
        fill: #fff;
        stroke-width: 0px;
      }
    </style>
  </defs>
  <g id="pokeball-bottom">
    <path class="cls-2" d="M173.5,138.7h73.8c-6.7,61.7-58.9,109.7-122.4,109.7S9.2,200.4,2.5,138.7h73.8c5.9,21.3,25.4,36.9,48.6,36.9s42.7-15.6,48.6-36.9Z"/>
  </g>
  <g id="pokeball-top">
    <path class="cls-1" d="M76.4,111.9H2.5C9.2,50.2,61.5,2.2,124.9,2.2s115.7,48,122.4,109.7h-73.8c-5.9-21.3-25.4-36.9-48.6-36.9s-42.7,15.6-48.6,36.9Z"/>
  </g>
  <g id="pokeball-center">
    <path class="cls-2" d="M156.3,125.3c0,4.8-1.1,9.4-3,13.4-5,10.6-15.8,17.9-28.3,17.9s-23.3-7.3-28.3-17.9c-1.9-4.1-3-8.6-3-13.4s1.1-9.4,3-13.4c5-10.6,15.8-17.9,28.3-17.9s23.3,7.3,28.3,17.9c1.9,4.1,3,8.6,3,13.4Z"/>
  </g>
</svg>